<svg width="12" height="20" viewBox="0 0 12 20" fill="none" xmlns="http://www.w3.org/2000/svg">
<path d="M7.25982 8.36384V5.184C8.2295 5.43782 9.17742 5.92124 9.95299 6.68176L9.95623 6.67705C10.0142 6.72643 10.0845 6.7604 10.1645 6.7604C10.2697 6.7604 10.36 6.70598 10.4224 6.62578L10.4268 6.62672L11.6803 4.73706L11.6774 4.73549C11.7288 4.67195 11.7629 4.59143 11.7629 4.50085C11.7629 4.39391 11.7179 4.30018 11.6491 4.23382C10.4865 3.08549 9.00213 2.39605 7.25982 2.18878V0.362647C7.25982 0.162295 7.10777 0 6.92042 0H5.57398C5.38663 0 5.23487 0.162295 5.23487 0.362647V2.14254C2.32612 2.46493 0.602632 4.44675 0.602632 6.77392C0.602632 9.90753 3.01581 10.8061 5.23487 11.3823V14.9535C3.80991 14.6804 2.63876 13.8907 1.84201 13.0065C1.83643 12.9999 1.83054 12.9943 1.82437 12.9883L1.80907 12.9723L1.80672 12.9757C1.74774 12.9216 1.67294 12.8913 1.59525 12.8899C1.53475 12.8904 1.47551 12.9085 1.42384 12.9422C1.37216 12.9759 1.32997 13.0239 1.30173 13.0811L1.29762 13.0805L0.0844093 15.0066L0.0858802 15.0098C0.0313564 15.0743 0.000809842 15.158 0 15.245C0 15.3604 0.0535281 15.4586 0.131761 15.5249L0.128526 15.53C1.3135 16.7972 2.97257 17.7188 5.23487 17.9263V19.6374C5.23487 19.8377 5.38663 20 5.57398 20H6.92042C7.10777 20 7.25953 19.8374 7.25953 19.6374L7.25982 17.926C10.4271 17.58 12 15.5992 12 13.0411C12 9.88488 9.50065 8.9627 7.25982 8.36384ZM5.23458 7.83355C4.35136 7.53444 3.74785 7.18846 3.74785 6.5201C3.74785 5.73693 4.28666 5.184 5.23458 5.04561V7.83355ZM7.25982 14.9997V11.9123C8.20803 12.2347 8.87596 12.604 8.87596 13.3638C8.87596 14.1014 8.35862 14.7691 7.25982 14.9997Z" fill="#8D929A"/>
</svg>
