<!DOCTYPE svg PUBLIC "-//W3C//DTD SVG 1.1//EN" "http://www.w3.org/Graphics/SVG/1.1/DTD/svg11.dtd">

<!-- Uploaded to: SVG Repo, www.svgrepo.com, Transformed by: SVG Repo Mixer Tools -->
<svg width="90px" height="90px" viewBox="0 0 64.00 64.00" xmlns="http://www.w3.org/2000/svg" stroke-width="2.56" stroke="#6366F1" opacity="0.05" fill="none">

<g id="SVGRepo_bgCarrier" stroke-width="0"/>

<g id="SVGRepo_tracerCarrier" stroke-linecap="round" stroke-linejoin="round"/>

<g id="SVGRepo_iconCarrier">

<path d="M53.36,41.21V52.14a2,2,0,0,1-2,2h-43a2,2,0,0,1-2-2v-31a2,2,0,0,1,2-2h43a2,2,0,0,1,2,2v8.93" stroke-linecap="round"/>

<rect x="39.64" y="30.07" width="18" height="11.14" rx=".99" stroke-linecap="round"/>

<path d="M8.14,19.14l33.15-9.2h0a1.7,1.7,0,0,1,2.15,1.6l.27,7" stroke-linecap="round"/>

<line x1="45.73" y1="35.64" x2="46.26" y2="35.64" stroke-linecap="round"/>

</g>

</svg>