<svg xmlns="http://www.w3.org/2000/svg" viewBox="0 0 172.9 30.67"><defs><style>.cls-1{fill:#231f20;}</style></defs><title>Asset 3</title><g id="Layer_2" data-name="Layer 2"><g id="Layer_1-2" data-name="Layer 1"><path class="cls-1" d="M53.73,11.62v2A5.38,5.38,0,0,0,51.88,12,6.2,6.2,0,0,0,49,11.32a6.54,6.54,0,0,0-3.57,1A7.09,7.09,0,0,0,42.89,15,7.78,7.78,0,0,0,42,18.8a7.79,7.79,0,0,0,.93,3.81,7.08,7.08,0,0,0,2.51,2.67,6.74,6.74,0,0,0,3.56,1,6.26,6.26,0,0,0,3-.68A5.17,5.17,0,0,0,53.73,24v2h2.75V11.62Zm-1,10.7a4.21,4.21,0,0,1-3.26,1.37A4.65,4.65,0,0,1,47,23.06a4.37,4.37,0,0,1-1.64-1.74,5.33,5.33,0,0,1-.59-2.55,5.33,5.33,0,0,1,.59-2.52A4.38,4.38,0,0,1,47,14.52a4.92,4.92,0,0,1,4.78,0,4.23,4.23,0,0,1,1.58,1.72,5.57,5.57,0,0,1,.56,2.58A5.09,5.09,0,0,1,52.68,22.32Z"/><path class="cls-1" d="M62.9,18.62l.25.27v-.53Zm0,0,.25.27v-.53Z"/><polygon class="cls-1" points="72.1 25.95 68.6 25.95 63.15 19.98 63.15 25.95 60.43 25.95 60.43 4.41 63.15 4.41 63.15 17.31 68.54 11.62 71.83 11.62 65.24 18.51 72.1 25.95"/><path class="cls-1" d="M79.17,26.25a8,8,0,0,1-2.28-.32,7.49,7.49,0,0,1-2-.91,6.76,6.76,0,0,1-1.57-1.4l1.75-1.75a5,5,0,0,0,1.81,1.43,5.46,5.46,0,0,0,2.29.47,3.68,3.68,0,0,0,2-.44,1.37,1.37,0,0,0,.69-1.22,1.47,1.47,0,0,0-.56-1.22,4.67,4.67,0,0,0-1.43-.72Q79,19.89,78,19.6a10.3,10.3,0,0,1-1.86-.74,4,4,0,0,1-1.43-1.24,3.52,3.52,0,0,1-.56-2.08,4,4,0,0,1,.63-2.25,4.1,4.1,0,0,1,1.77-1.46,6.58,6.58,0,0,1,2.73-.51,7.27,7.27,0,0,1,3,.59,5.27,5.27,0,0,1,2.16,1.77L82.7,15.42a4.06,4.06,0,0,0-1.49-1.21,4.63,4.63,0,0,0-2-.42,3.27,3.27,0,0,0-1.79.41,1.38,1.38,0,0,0-.08,2.25,4.85,4.85,0,0,0,1.43.66l1.86.56a9.32,9.32,0,0,1,1.84.77,4.14,4.14,0,0,1,1.43,1.3,3.72,3.72,0,0,1,.56,2.14A3.92,3.92,0,0,1,83,25.08,5.87,5.87,0,0,1,79.17,26.25Z"/><path class="cls-1" d="M100.35,17v8.9H97.63V17.6a3.69,3.69,0,0,0-1-2.69,3.52,3.52,0,0,0-2.65-1,3.81,3.81,0,0,0-1.93.48,3.47,3.47,0,0,0-1.33,1.33,3.81,3.81,0,0,0-.48,1.93v8.35H87.49V4.41h2.72v9.08a5.12,5.12,0,0,1,1.63-1.43,5.81,5.81,0,0,1,2.92-.74,5.56,5.56,0,0,1,2.88.73,5.13,5.13,0,0,1,2,2A6,6,0,0,1,100.35,17Z"/><path class="cls-1" d="M114.89,11.62v2A5.33,5.33,0,0,0,113,12a6.13,6.13,0,0,0-2.91-.68,6.49,6.49,0,0,0-3.57,1A7.11,7.11,0,0,0,104,15a7.88,7.88,0,0,0-.92,3.8,7.89,7.89,0,0,0,.92,3.81,7,7,0,0,0,2.52,2.67,6.71,6.71,0,0,0,3.56,1,6.19,6.19,0,0,0,2.94-.68A5.2,5.2,0,0,0,114.89,24v2h2.74V11.62Zm-1.06,10.7a4.18,4.18,0,0,1-3.26,1.37,4.61,4.61,0,0,1-2.41-.63,4.46,4.46,0,0,1-1.65-1.74,5.33,5.33,0,0,1-.58-2.55,5.32,5.32,0,0,1,.58-2.52,4.52,4.52,0,0,1,1.63-1.73,4.94,4.94,0,0,1,4.79,0,4.23,4.23,0,0,1,1.58,1.72,5.7,5.7,0,0,1,.56,2.58A5,5,0,0,1,113.83,22.32Z"/><path class="cls-1" d="M131.78,12.95,130,14.79a2.7,2.7,0,0,0-1-.69,3.52,3.52,0,0,0-1.27-.21,3.34,3.34,0,0,0-2.47,1,4,4,0,0,0-1,2.93v8.17h-2.71V11.62h2.71v1.67l.24-.34a4.34,4.34,0,0,1,3.65-1.63,4.89,4.89,0,0,1,2,.38A4.49,4.49,0,0,1,131.78,12.95Z"/><path class="cls-1" d="M145.46,13.76a4,4,0,0,0-1.62-1.49,5,5,0,0,0-2.31-.52H136.3v14h1.9V20.33h3.32a4.91,4.91,0,0,0,2.31-.54,4.15,4.15,0,0,0,1.62-1.5,4.23,4.23,0,0,0,.6-2.26A4.22,4.22,0,0,0,145.46,13.76Zm-1.68,3.67a2.36,2.36,0,0,1-1,.91,3,3,0,0,1-1.4.32h-3.2V13.41h3.2a3,3,0,0,1,1.4.32,2.41,2.41,0,0,1,1,.91,2.91,2.91,0,0,1,0,2.79Z"/><path class="cls-1" d="M155,26a6.95,6.95,0,0,1-5.06-2.11,7.18,7.18,0,0,1-1.51-2.32,7.67,7.67,0,0,1,0-5.63,7.19,7.19,0,0,1,1.5-2.3,6.8,6.8,0,0,1,2.25-1.54,7.36,7.36,0,0,1,5.56,0A6.91,6.91,0,0,1,160,13.63a7.22,7.22,0,0,1,1.52,2.31,7.4,7.4,0,0,1-1.51,8,6.9,6.9,0,0,1-5,2.1Zm0-1.82a4.89,4.89,0,0,0,4.47-2.62,5.75,5.75,0,0,0,.67-2.8,5.87,5.87,0,0,0-.38-2.15,5.27,5.27,0,0,0-1.07-1.71A4.77,4.77,0,0,0,157,13.76a5.24,5.24,0,0,0-2.06-.39,5,5,0,0,0-2.64.69,4.89,4.89,0,0,0-1.8,1.9,5.76,5.76,0,0,0-.66,2.79,6.16,6.16,0,0,0,.37,2.17,5,5,0,0,0,1.05,1.72,4.81,4.81,0,0,0,1.62,1.12A5.14,5.14,0,0,0,154.91,24.17Z"/><path class="cls-1" d="M168.15,26a6.1,6.1,0,0,1-2.83-.61,6.41,6.41,0,0,1-2.08-1.76l1.29-1.29a4.64,4.64,0,0,0,1.54,1.41,4.42,4.42,0,0,0,2.14.48,3.37,3.37,0,0,0,2-.55,1.75,1.75,0,0,0,.76-1.5,2.07,2.07,0,0,0-.36-1.27,2.76,2.76,0,0,0-1-.8,10.76,10.76,0,0,0-1.35-.57q-.73-.25-1.46-.55a6.35,6.35,0,0,1-1.34-.73,3.23,3.23,0,0,1-1-1.14,3.78,3.78,0,0,1-.37-1.78,3.5,3.5,0,0,1,.58-2A3.75,3.75,0,0,1,166.29,12a5.39,5.39,0,0,1,2.26-.46,5.53,5.53,0,0,1,2.47.54,5.08,5.08,0,0,1,1.78,1.41l-1.29,1.29a4.46,4.46,0,0,0-1.35-1.09,3.6,3.6,0,0,0-1.65-.36,3,3,0,0,0-1.8.5,1.63,1.63,0,0,0-.67,1.39,1.69,1.69,0,0,0,.37,1.14,3.1,3.1,0,0,0,1,.74,10.87,10.87,0,0,0,1.35.56q.74.25,1.47.56a5.94,5.94,0,0,1,1.34.77,3.46,3.46,0,0,1,1,1.2A4.08,4.08,0,0,1,172.9,22a3.56,3.56,0,0,1-1.28,2.91A5.31,5.31,0,0,1,168.15,26Z"/><path class="cls-1" d="M14.94,22.18a1.24,1.24,0,0,0-.61.5l-5.06,8h4.2l2.27-8.53A1.25,1.25,0,0,0,14.94,22.18Z"/><path class="cls-1" d="M22.84,0h-15A7.85,7.85,0,0,0,0,7.83v15a7.79,7.79,0,0,0,.6,3l2.41-9a.87.87,0,0,1,1.07-.61l11.86,3.16a.53.53,0,0,0,.65-.38L17,17.26A4.31,4.31,0,0,0,14,12L5.7,9.79a.8.8,0,0,1-.56-1l.77-2.9a.79.79,0,0,1,1-.56L21.36,9.22A7.17,7.17,0,0,1,26.45,18L23.07,30.66a7.85,7.85,0,0,0,7.6-7.82v-15A7.85,7.85,0,0,0,22.84,0Z"/></g></g></svg>